<svg width="32" height="32" viewBox="0 0 32 32" fill="none" xmlns="http://www.w3.org/2000/svg">
<path d="M28 15.3334V21.3334C28 21.687 27.8595 22.0261 27.6095 22.2762C27.3594 22.5262 27.0203 22.6667 26.6667 22.6667H24.6667M28 15.3334H18.6667M28 15.3334L25.6853 10.1254C25.5806 9.88959 25.4097 9.68928 25.1934 9.54871C24.9771 9.40813 24.7246 9.33332 24.4667 9.33335H18.6667M24.6667 22.6667C24.6667 23.3739 24.3857 24.0522 23.8856 24.5523C23.3855 25.0524 22.7072 25.3334 22 25.3334C21.2928 25.3334 20.6145 25.0524 20.1144 24.5523C19.6143 24.0522 19.3333 23.3739 19.3333 22.6667M24.6667 22.6667C24.6667 21.9594 24.3857 21.2812 23.8856 20.7811C23.3855 20.281 22.7072 20 22 20C21.2928 20 20.6145 20.281 20.1144 20.7811C19.6143 21.2812 19.3333 21.9594 19.3333 22.6667M18.6667 15.3334V22.6667M18.6667 15.3334V9.33335M18.6667 9.33335V8.00002C18.6667 7.6464 18.5262 7.30726 18.2761 7.05721C18.0261 6.80716 17.687 6.66669 17.3333 6.66669H5.33333C4.97971 6.66669 4.64057 6.80716 4.39052 7.05721C4.14048 7.30726 4 7.6464 4 8.00002V21.3334C4 21.687 4.14048 22.0261 4.39052 22.2762C4.64057 22.5262 4.97971 22.6667 5.33333 22.6667H7.33333M7.33333 22.6667C7.33333 23.3739 7.61428 24.0522 8.11438 24.5523C8.61448 25.0524 9.29276 25.3334 10 25.3334C10.7072 25.3334 11.3855 25.0524 11.8856 24.5523C12.3857 24.0522 12.6667 23.3739 12.6667 22.6667M7.33333 22.6667C7.33333 21.9594 7.61428 21.2812 8.11438 20.7811C8.61448 20.281 9.29276 20 10 20C10.7072 20 11.3855 20.281 11.8856 20.7811C12.3857 21.2812 12.6667 21.9594 12.6667 22.6667M12.6667 22.6667H18.6667M18.6667 22.6667H19.3333" stroke="black" stroke-width="2" stroke-linecap="round" stroke-linejoin="round"/>
</svg>
