<svg width="32" height="32" viewBox="0 0 32 32" fill="none" xmlns="http://www.w3.org/2000/svg">
<path d="M13.3333 24V23.8573C13.3333 22.7973 12.672 21.8733 11.844 21.212C10.7633 20.3501 9.97719 19.1736 9.59453 17.8454C9.21187 16.5171 9.25157 15.1027 9.70813 13.7979C10.1647 12.4932 11.0155 11.3627 12.1429 10.5628C13.2702 9.76286 14.6184 9.33318 16.0007 9.33318C17.383 9.33318 18.7311 9.76286 19.8585 10.5628C20.9858 11.3627 21.8367 12.4932 22.2932 13.7979C22.7498 15.1027 22.7895 16.5171 22.4068 17.8454C22.0241 19.1736 21.2381 20.3501 20.1573 21.212C19.328 21.8747 18.6667 22.7973 18.6667 23.8573V24M13.3333 24V26.6667C13.3333 27.0203 13.4738 27.3594 13.7239 27.6095C13.9739 27.8595 14.313 28 14.6667 28H17.3333C17.687 28 18.0261 27.8595 18.2761 27.6095C18.5262 27.3594 18.6667 27.0203 18.6667 26.6667V24M13.3333 24H18.6667M26.6667 16H28M5.33333 16H4M16 5.33333V4M23.5427 8.45733L24.4853 7.51467M8.45867 8.45733L7.51467 7.51467M16 20V17.3333" stroke="black" stroke-width="2" stroke-linecap="round" stroke-linejoin="round"/>
</svg>
