<svg width="36" height="36" viewBox="0 0 36 36" fill="none" xmlns="http://www.w3.org/2000/svg">
<path d="M15 27V26.8395C15 25.647 14.256 24.6075 13.3245 23.8635C12.1087 22.8939 11.2243 21.5703 10.7938 20.076C10.3634 18.5817 10.408 16.9905 10.9216 15.5227C11.4353 14.0549 12.3925 12.783 13.6607 11.8831C14.929 10.9832 16.4457 10.4998 18.0007 10.4998C19.5558 10.4998 21.0725 10.9832 22.3408 11.8831C23.609 12.783 24.5662 14.0549 25.0799 15.5227C25.5935 16.9905 25.6381 18.5817 25.2076 20.076C24.7772 21.5703 23.8928 22.8939 22.677 23.8635C21.744 24.609 21 25.647 21 26.8395V27M15 27V30C15 30.3978 15.158 30.7794 15.4393 31.0607C15.7206 31.342 16.1022 31.5 16.5 31.5H19.5C19.8978 31.5 20.2794 31.342 20.5607 31.0607C20.842 30.7794 21 30.3978 21 30V27M15 27H21M30 18H31.5M6 18H4.5M18 6V4.5M26.4855 9.5145L27.546 8.454M9.516 9.5145L8.454 8.454M18 22.5V19.5" stroke="white" stroke-width="2" stroke-linecap="round" stroke-linejoin="round"/>
</svg>
