<svg width="32" height="32" viewBox="0 0 32 32" fill="none" xmlns="http://www.w3.org/2000/svg">
<path fill-rule="evenodd" clip-rule="evenodd" d="M16 28C22.6274 28 28 22.6274 28 16C28 9.37269 22.6274 4.00002 16 4.00002C9.37269 4.00002 4.00002 9.37269 4.00002 16C4.00002 22.6274 9.37269 28 16 28ZM16 29.3334C23.364 29.3334 29.3334 23.364 29.3334 16C29.3334 8.63602 23.364 2.66669 16 2.66669C8.63602 2.66669 2.66669 8.63602 2.66669 16C2.66669 23.364 8.63602 29.3334 16 29.3334Z" fill="black"/>
<path fill-rule="evenodd" clip-rule="evenodd" d="M23.1133 10.8394C23.2445 10.9579 23.3232 11.1236 23.3322 11.3001C23.3412 11.4766 23.2797 11.6495 23.1613 11.7807L14.2573 21.6214L8.87333 16.482C8.75244 16.3585 8.68426 16.1928 8.68318 16.0199C8.6821 15.8471 8.74821 15.6806 8.86755 15.5555C8.98689 15.4305 9.15015 15.3567 9.32286 15.3497C9.49558 15.3427 9.66427 15.403 9.79333 15.518L14.1867 19.7114L22.1727 10.8867C22.2314 10.8218 22.3024 10.769 22.3816 10.7315C22.4607 10.694 22.5465 10.6725 22.634 10.6682C22.7215 10.6638 22.809 10.6768 22.8914 10.7063C22.9739 10.7358 23.0498 10.7812 23.1147 10.84" fill="black"/>
</svg>
