<svg width="146" height="60" viewBox="0 0 146 60" fill="none" xmlns="http://www.w3.org/2000/svg">
<path d="M17.831 22.2C17.831 25.4447 15.7514 27.067 11.5923 27.067H2.47775C2.31552 27.067 2.17541 27.008 2.05742 26.89C1.93943 26.772 1.88044 26.6319 1.88044 26.4697V12.1784C1.88044 12.0162 1.93943 11.876 2.05742 11.7581C2.17541 11.6401 2.31552 11.5811 2.47775 11.5811H11.3711C13.4654 11.5811 15.0066 11.9645 15.9948 12.7315C16.9977 13.4836 17.4991 14.6266 17.4991 16.1605V16.2269C17.4991 16.9348 17.3074 17.5395 16.9239 18.0409C16.5405 18.5424 16.1423 18.8595 15.7293 18.9922C16.3045 19.1692 16.7986 19.56 17.2115 20.1647C17.6245 20.7546 17.831 21.4331 17.831 22.2ZM7.63236 21.0939V23.2619H10.8402C11.1794 23.2619 11.4301 23.1513 11.5923 22.9301C11.7693 22.6941 11.8578 22.436 11.8578 22.1558V22.1336C11.8578 21.8534 11.7619 21.6101 11.5702 21.4036C11.3932 21.1971 11.1499 21.0939 10.8402 21.0939H7.63236ZM11.2605 17.0896C11.4227 16.8684 11.5038 16.6251 11.5038 16.3596C11.5038 16.0941 11.4227 15.8655 11.2605 15.6738C11.113 15.4821 10.8918 15.3862 10.5968 15.3862H7.63236V17.3994H10.5968C10.8918 17.3994 11.113 17.2961 11.2605 17.0896ZM24.0167 27.067H19.8355C19.7028 27.067 19.5848 27.0228 19.4815 26.9343C19.393 26.831 19.3488 26.7352 19.3488 26.6467C19.3488 26.5582 19.3562 26.4918 19.3709 26.4476L24.1937 12.3111C24.3264 11.8244 24.6583 11.5811 25.1892 11.5811H31.3393C31.8703 11.5811 32.2021 11.8244 32.3349 12.3111L37.1576 26.4476C37.1724 26.4918 37.1798 26.5582 37.1798 26.6467C37.1798 26.7352 37.1281 26.831 37.0249 26.9343C36.9364 27.0228 36.8258 27.067 36.6931 27.067H32.5118C32.0399 27.067 31.7081 26.8163 31.5163 26.3148L30.9633 24.7662H25.5653L25.0122 26.3148C24.8205 26.8163 24.4886 27.067 24.0167 27.067ZM29.835 20.4523L28.2643 15.8508L26.6936 20.4523H29.835ZM49.8032 11.5811H54.3605C54.5227 11.5811 54.6629 11.6401 54.7808 11.7581C54.8988 11.876 54.9578 12.0162 54.9578 12.1784V26.4697C54.9578 26.6319 54.8988 26.772 54.7808 26.89C54.6629 27.008 54.5227 27.067 54.3605 27.067H49.8032C49.641 27.067 49.5009 27.008 49.3829 26.89C49.2649 26.772 49.2059 26.6319 49.2059 26.4697V21.7575H44.7813V26.4697C44.7813 26.6319 44.7224 26.772 44.6044 26.89C44.4864 27.008 44.3463 27.067 44.184 27.067H39.6267C39.4645 27.067 39.3244 27.0154 39.2064 26.9122C39.0884 26.7942 39.0294 26.6467 39.0294 26.4697V12.1784C39.0294 12.0162 39.0884 11.876 39.2064 11.7581C39.3244 11.6401 39.4645 11.5811 39.6267 11.5811H44.184C44.3463 11.5811 44.4864 11.6401 44.6044 11.7581C44.7224 11.876 44.7813 12.0162 44.7813 12.1784V16.7136H49.2059V12.1784C49.2059 12.0162 49.2649 11.876 49.3829 11.7581C49.5009 11.6401 49.641 11.5811 49.8032 11.5811ZM58.157 11.5811H73.4217C73.5839 11.5811 73.724 11.6401 73.842 11.7581C73.96 11.876 74.019 12.0162 74.019 12.1784V15.7402C74.019 15.9024 73.96 16.0425 73.842 16.1605C73.724 16.2785 73.5839 16.3375 73.4217 16.3375H68.6653V26.4697C68.6653 26.6319 68.6063 26.772 68.4883 26.89C68.3703 27.008 68.2302 27.067 68.068 27.067H63.5107C63.3485 27.067 63.2084 27.008 63.0904 26.89C62.9724 26.772 62.9134 26.6319 62.9134 26.4697V16.3375H58.157C57.9948 16.3375 57.8546 16.2785 57.7367 16.1605C57.6187 16.0425 57.5597 15.9024 57.5597 15.7402V12.1784C57.5597 12.0162 57.6187 11.876 57.7367 11.7581C57.8546 11.6401 57.9948 11.5811 58.157 11.5811ZM80.4039 27.067H76.2227C76.0899 27.067 75.9719 27.0228 75.8687 26.9343C75.7802 26.831 75.736 26.7352 75.736 26.6467C75.736 26.5582 75.7433 26.4918 75.7581 26.4476L80.5808 12.3111C80.7136 11.8244 81.0454 11.5811 81.5764 11.5811H87.7265C88.2574 11.5811 88.5893 11.8244 88.722 12.3111L93.5448 26.4476C93.5595 26.4918 93.5669 26.5582 93.5669 26.6467C93.5669 26.7352 93.5153 26.831 93.4121 26.9343C93.3236 27.0228 93.213 27.067 93.0802 27.067H88.899C88.4271 27.067 88.0952 26.8163 87.9035 26.3148L87.3504 24.7662H81.9525L81.3994 26.3148C81.2077 26.8163 80.8758 27.067 80.4039 27.067ZM86.2222 20.4523L84.6514 15.8508L83.0807 20.4523H86.2222ZM105.261 27.067H101.456C101.294 27.067 101.154 27.008 101.036 26.89C100.918 26.772 100.859 26.6319 100.859 26.4697V21.5142L98.8014 26.6246C98.6539 26.9195 98.3884 27.067 98.005 27.067H94.1113C93.8311 27.067 93.691 26.9195 93.691 26.6246C93.691 26.6098 93.7205 26.5139 93.7795 26.337L96.9209 18.9922L94.1556 12.3111C94.0966 12.1341 94.0671 12.0309 94.0671 12.0014C94.0671 11.7212 94.1998 11.5811 94.4653 11.5811H98.4032C98.6981 11.5811 98.9046 11.7433 99.0226 12.0678L100.859 16.7799V12.1784C100.859 12.0162 100.918 11.876 101.036 11.7581C101.154 11.6401 101.294 11.5811 101.456 11.5811H105.261C105.423 11.5811 105.564 11.6401 105.682 11.7581C105.8 11.876 105.859 12.0162 105.859 12.1784V16.7799L107.695 12.0678C107.813 11.7433 108.019 11.5811 108.314 11.5811H112.252C112.517 11.5811 112.65 11.7212 112.65 12.0014C112.65 12.0309 112.621 12.1341 112.562 12.3111L109.796 18.9922L112.938 26.337C112.997 26.5139 113.026 26.6098 113.026 26.6246C113.026 26.9195 112.886 27.067 112.606 27.067H108.712C108.329 27.067 108.063 26.9195 107.916 26.6246L105.859 21.5142V26.4697C105.859 26.6319 105.8 26.772 105.682 26.89C105.564 27.008 105.423 27.067 105.261 27.067Z" fill="black"/>
<path d="M2.05139 31.0948H15.0435C15.191 31.0948 15.3184 31.1485 15.4256 31.2557C15.5329 31.363 15.5865 31.4904 15.5865 31.6379V44.63C15.5865 44.7774 15.5329 44.9048 15.4256 45.0121C15.3184 45.1193 15.191 45.173 15.0435 45.173H11.1016C10.9541 45.173 10.8268 45.1193 10.7195 45.0121C10.6122 44.9048 10.5586 44.7774 10.5586 44.63V35.4389H6.53628V44.63C6.53628 44.7774 6.48265 44.9048 6.37538 45.0121C6.26812 45.1193 6.14075 45.173 5.99326 45.173H2.05139C1.9039 45.173 1.77653 45.126 1.66926 45.0322C1.562 44.9249 1.50837 44.7909 1.50837 44.63V31.6379C1.50837 31.4904 1.562 31.363 1.66926 31.2557C1.77653 31.1485 1.9039 31.0948 2.05139 31.0948ZM18.3943 45.3741C18.2468 45.3741 18.1127 45.3205 17.992 45.2132C17.8848 45.1059 17.8311 44.9786 17.8311 44.8311V41.6132C17.8311 41.4657 17.8848 41.3384 17.992 41.2311C18.0993 41.1238 18.2267 41.0702 18.3742 41.0702C18.9373 41.0702 19.3261 40.9495 19.5406 40.7082C19.7552 40.4534 19.8624 40.0579 19.8624 39.5216V31.6379C19.8624 31.4904 19.9161 31.363 20.0233 31.2557C20.1306 31.1485 20.258 31.0948 20.4054 31.0948H31.8288C31.9763 31.0948 32.1037 31.1485 32.211 31.2557C32.3182 31.363 32.3718 31.4904 32.3718 31.6379V44.63C32.3718 44.7774 32.3182 44.9048 32.211 45.0121C32.1037 45.1193 31.9763 45.173 31.8288 45.173H28.0881C27.9406 45.173 27.8132 45.1193 27.706 45.0121C27.5987 44.9048 27.5451 44.7774 27.5451 44.63V35.4188H24.6892V39.4613C24.6892 41.4456 24.1328 42.9272 23.0199 43.9059C21.9205 44.8847 20.3786 45.3741 18.3943 45.3741ZM38.6388 31.6379V35.8613H40.0667C40.2947 34.1719 40.8511 32.925 41.736 32.1205C42.6343 31.3027 43.9215 30.8937 45.5974 30.8937C47.6488 30.8937 49.1036 31.4971 49.9617 32.7038C50.8332 33.9105 51.2689 35.7272 51.2689 38.154C51.2689 40.5808 50.8332 42.3909 49.9617 43.5842C49.1036 44.7774 47.6488 45.3741 45.5974 45.3741C43.9349 45.3741 42.6544 44.9517 41.7561 44.1071C40.8712 43.249 40.3081 41.9752 40.0667 40.2859H38.6388V44.63C38.6388 44.7774 38.5852 44.9048 38.4779 45.0121C38.3707 45.1193 38.2433 45.173 38.0958 45.173H34.8578C34.7103 45.173 34.583 45.126 34.4757 45.0322C34.3685 44.9249 34.3148 44.7909 34.3148 44.63V31.6379C34.3148 31.4904 34.3685 31.363 34.4757 31.2557C34.583 31.1485 34.7103 31.0948 34.8578 31.0948H38.0958C38.2433 31.0948 38.3707 31.1485 38.4779 31.2557C38.5852 31.363 38.6388 31.4904 38.6388 31.6379ZM44.5516 36.5652V39.7026C44.5516 40.8691 44.9002 41.4523 45.5974 41.4523C46.2946 41.4523 46.6432 40.8624 46.6432 39.6825V36.5853C46.6432 35.4054 46.2946 34.8155 45.5974 34.8155C44.9002 34.8155 44.5516 35.3987 44.5516 36.5652ZM57.9582 36.525V39.7428C57.9582 40.2926 58.1392 40.7149 58.5012 41.0099C58.8767 41.3048 59.3593 41.4523 59.9493 41.4523C60.5526 41.4523 60.9884 41.3585 61.2565 41.1708C61.5247 40.9831 61.7459 40.7082 61.9202 40.3462C62.1079 39.9842 62.3493 39.8032 62.6442 39.8032H66.9883C67.109 39.8032 67.2096 39.8501 67.29 39.944C67.3839 40.0244 67.4308 40.125 67.4308 40.2456C67.4308 41.4925 66.8409 42.6322 65.661 43.6646C65.071 44.1741 64.2867 44.5897 63.3079 44.9115C62.3291 45.2199 61.1761 45.3741 59.8487 45.3741C58.5213 45.3741 57.3079 45.173 56.2085 44.7707C55.1225 44.3551 54.2376 43.6847 53.5538 42.7596C52.87 41.821 52.5281 40.6747 52.5281 39.3205V36.9473C52.5281 35.5931 52.87 34.4468 53.5538 33.5082C54.8409 31.7652 56.9929 30.8937 60.0096 30.8937C61.2297 30.8937 62.3291 31.0546 63.3079 31.3764C64.2867 31.6848 65.071 32.0937 65.661 32.6032C66.8409 33.6356 67.4308 34.7753 67.4308 36.0222C67.4308 36.1429 67.3839 36.2501 67.29 36.344C67.2096 36.4244 67.109 36.4646 66.9883 36.4646H62.6442C62.3493 36.4646 62.1079 36.2836 61.9202 35.9216C61.7459 35.5596 61.5247 35.2848 61.2565 35.0971C60.9884 34.9093 60.5526 34.8155 59.9493 34.8155C59.3593 34.8155 58.8767 34.963 58.5012 35.2579C58.1392 35.5529 57.9582 35.9753 57.9582 36.525Z" fill="black"/>
<path d="M116.647 41.9658L116.647 33.8752C116.647 32.2921 117.931 31.0088 119.514 31.0088L127.604 31.0088L121.276 31.8125C119.352 32.0568 117.83 33.5587 117.56 35.479L116.647 41.9658Z" fill="black"/>
<path fill-rule="evenodd" clip-rule="evenodd" d="M86.5758 31.0089C85.0214 31.0089 85.158 32.6562 86.697 32.8746L107.187 35.7831C109.848 36.1608 111.89 38.3367 112.097 41.0164L113.508 59.2403C113.575 60.1008 114.494 60.3113 114.494 59.4482V33.8753C114.494 32.2922 113.211 31.0089 111.627 31.0089H86.5758Z" fill="black"/>
<path fill-rule="evenodd" clip-rule="evenodd" d="M144.508 29.001C146.37 29.001 146.167 27.0193 144.324 26.7561L124.128 23.8709C121.468 23.4909 119.429 21.3145 119.223 18.6355L117.849 0.778043C117.782 -0.100518 116.842 -0.31951 116.842 0.561647L116.842 26.1346C116.842 27.7177 118.125 29.001 119.708 29.001L144.508 29.001Z" fill="#0A6CA4"/>
</svg>
