<svg width="78" height="78" viewBox="0 0 78 78" fill="none" xmlns="http://www.w3.org/2000/svg">
<path d="M76.9366 33.15L69.164 17.5957C68.9137 17.0945 68.5672 16.6476 68.1442 16.2803C67.7212 15.9131 67.23 15.6328 66.6987 15.4554C66.1673 15.278 65.6062 15.207 65.0475 15.2464C64.4887 15.2859 63.9431 15.435 63.442 15.6853L55.6542 19.5792L39.4661 15.2953C39.1604 15.216 38.8395 15.216 38.5338 15.2953L22.3457 19.5792L14.561 15.6853C14.0597 15.4345 13.5139 15.285 12.9548 15.2453C12.3957 15.2056 11.8342 15.2765 11.3025 15.4539C10.7708 15.6314 10.2793 15.9118 9.85606 16.2793C9.43283 16.6468 9.08616 17.0941 8.8359 17.5957L1.06332 33.15C0.557643 34.1617 0.474504 35.3329 0.832183 36.4059C1.18986 37.4789 1.95907 38.366 2.97066 38.872L11.2429 43.0096L28.1866 55.1118C28.3702 55.2442 28.5769 55.3413 28.796 55.3982L48.296 60.2732C48.4444 60.3104 48.5969 60.3289 48.75 60.3281C49.2346 60.3276 49.6993 60.1348 50.0418 59.7918L66.8941 42.9396L75.0293 38.872C76.0408 38.366 76.8101 37.4789 77.1677 36.4059C77.5254 35.3329 77.4423 34.1617 76.9366 33.15ZM60.7882 43.8628L49.8804 35.1243C49.5286 34.8428 49.0852 34.7011 48.6354 34.7264C48.1855 34.7517 47.7608 34.9422 47.4429 35.2614C41.7604 40.9865 35.4077 40.2644 31.3584 37.6746C31.2788 37.6255 31.2115 37.5587 31.1619 37.4795C31.1122 37.4002 31.0815 37.3106 31.072 37.2175C31.0612 37.1322 31.0695 37.0456 31.0964 36.9639C31.1233 36.8822 31.168 36.8075 31.2274 36.7453L44.6153 23.7656H54.9321L63.5882 41.0779L60.7882 43.8628ZM4.2991 35.2492C4.24871 35.0965 4.26076 34.93 4.33261 34.7861L12.1082 19.2288C12.1593 19.1274 12.2378 19.0422 12.3347 18.983C12.4316 18.9238 12.5431 18.8928 12.6567 18.8936C12.7508 18.8937 12.8436 18.9156 12.9278 18.9576L19.695 22.3396L11.3709 38.9999L4.60379 35.6179C4.53076 35.5802 4.46612 35.5281 4.41376 35.4647C4.3614 35.4014 4.3224 35.3281 4.2991 35.2492ZM48.1893 56.4768L30.03 51.937L14.5214 40.8585L23.4121 23.08L39 18.9546L43.5093 20.1489C43.1645 20.2157 42.8467 20.382 42.5953 20.6273L28.6711 34.1402C28.219 34.592 27.8742 35.1397 27.6622 35.7427C27.4502 36.3457 27.3764 36.9886 27.4464 37.6239C27.5163 38.2593 27.7281 38.8708 28.0661 39.4132C28.4041 39.9557 28.8597 40.4153 29.3993 40.758C35.56 44.6946 43.034 43.9542 48.8383 38.9634L58.1953 46.4648L48.1893 56.4768ZM73.7008 35.2492C73.6757 35.3253 73.6359 35.3956 73.5836 35.4563C73.5314 35.5169 73.4676 35.5667 73.3961 35.6027L66.629 38.9999L58.305 22.3396L65.0721 18.9576C65.1437 18.9216 65.2218 18.9001 65.3018 18.8944C65.3818 18.8886 65.4622 18.8987 65.5382 18.9241C65.6143 18.9492 65.6846 18.989 65.7453 19.0413C65.8059 19.0935 65.8557 19.1573 65.8917 19.2288L73.6673 34.7861C73.7392 34.93 73.7512 35.0965 73.7008 35.2492ZM39.5758 66.2542C39.4585 66.7245 39.1593 67.1288 38.7439 67.3785C38.3285 67.6282 37.831 67.7027 37.3607 67.5857L24.6461 64.4078C24.4268 64.3516 24.22 64.2544 24.0368 64.1214L16.0021 58.3903C15.6074 58.1074 15.3412 57.6794 15.262 57.2003C15.1829 56.7211 15.2973 56.2302 15.5802 55.8355C15.863 55.4407 16.291 55.1745 16.7702 55.0953C17.2493 55.0162 17.7402 55.1306 18.135 55.4135L25.871 60.9375L38.2443 64.03C38.4779 64.0884 38.6976 64.1923 38.8908 64.3358C39.0841 64.4793 39.2471 64.6595 39.3706 64.8662C39.494 65.0729 39.5754 65.3019 39.6101 65.5401C39.6448 65.7783 39.6321 66.021 39.5728 66.2542H39.5758Z" fill="black"/>
</svg>
