<svg width="32" height="32" viewBox="0 0 32 32" fill="none" xmlns="http://www.w3.org/2000/svg">
<path d="M1.824 5.12002C0.128002 6.46402 0.128002 9.53602 1.824 10.88C2.4 11.328 3.104 11.52 4.224 11.52C5.536 11.52 5.952 11.36 6.752 10.592C8.096 9.21602 8.096 6.78402 6.752 5.40802C5.952 4.64002 5.536 4.48002 4.224 4.48002C3.104 4.48002 2.4 4.67202 1.824 5.12002ZM5.504 6.62402C6.72 7.71202 5.856 9.92002 4.224 9.92002C2.528 9.92002 1.568 7.74402 2.752 6.59202C3.392 5.92002 4.768 5.95202 5.504 6.62402Z" fill="black"/>
<path d="M25.504 5.12002C23.808 6.46402 23.808 9.53602 25.504 10.88C26.08 11.328 26.784 11.52 27.904 11.52C29.216 11.52 29.632 11.36 30.432 10.592C31.232 9.79202 31.36 9.40802 31.36 8.00002C31.36 6.59202 31.232 6.20802 30.432 5.40802C29.632 4.64002 29.216 4.48002 27.904 4.48002C26.784 4.48002 26.08 4.67202 25.504 5.12002ZM29.184 6.62402C30.4 7.71202 29.536 9.92002 27.904 9.92002C26.208 9.92002 25.248 7.74402 26.432 6.59202C27.072 5.92002 28.448 5.95202 29.184 6.62402Z" fill="black"/>
<path d="M11.2 8.096C10.24 8.576 8.95998 10.432 8.95998 11.328C8.95998 12.192 6.71998 12.992 5.75998 12.48C4.31998 11.712 1.69598 12.416 0.895981 13.856C0.607981 14.336 0.447981 16.512 0.383981 20.704L0.255981 26.88H1.08798H1.91998V23.616V20.352L2.87998 21.856C3.39198 22.688 4.35198 23.68 4.95998 24.032C5.88798 24.576 6.07998 24.896 6.07998 25.792C6.07998 26.72 6.17598 26.88 6.84798 26.88C7.45598 26.88 7.64798 26.688 7.74398 26.08L7.83998 25.312L9.24798 25.92C10.016 26.272 11.04 26.56 11.552 26.56C12.48 26.56 13.76 25.504 13.76 24.736C13.76 24.416 14.4 24.32 16.16 24.32C18.272 24.32 18.56 24.384 18.56 24.896C18.56 25.728 19.552 26.56 20.544 26.56C20.992 26.56 21.888 26.336 22.496 26.08C23.968 25.472 24 25.472 24 26.24C24 26.72 24.224 26.88 24.8 26.88C25.504 26.88 25.6 26.752 25.6 25.792C25.6 24.896 25.76 24.64 26.528 24.32C27.584 23.904 28.512 22.976 29.216 21.6C29.728 20.672 29.728 20.736 29.76 23.744C29.76 26.88 29.76 26.88 30.56 26.88H31.36V20.512C31.36 14.24 31.36 14.176 30.592 13.344C29.664 12.352 28.544 12 27.104 12.288C24.832 12.768 22.4 12.352 22.4 11.456C22.4 10.432 21.472 8.96 20.384 8.32C19.52 7.776 18.784 7.68 15.68 7.68C13.376 7.68 11.712 7.84 11.2 8.096ZM18.208 9.152C20.416 9.6 21.248 11.424 20.416 14.112L20.064 15.36H15.776H11.52V14.464C11.52 13.952 11.296 13.28 11.04 12.928C10.048 11.616 10.784 9.824 12.576 9.312C13.792 8.96 16.8 8.864 18.208 9.152ZM5.50398 14.304C5.82398 14.592 6.07998 15.136 6.07998 15.52C6.07998 16.096 5.91998 16.192 5.31198 16.096C4.09598 15.84 4.06398 16.48 5.27998 18.88C6.39998 21.088 6.43198 21.12 9.27998 22.56C10.88 23.36 12.16 24.128 12.16 24.32C12.16 24.992 11.392 24.992 9.66398 24.288C5.37598 22.592 5.05598 22.368 3.39198 19.392C2.17598 17.216 1.88798 16.448 2.07998 15.744C2.52798 13.888 4.25598 13.152 5.50398 14.304ZM9.85598 16.864L9.95198 19.84H15.84H21.76V17.344C21.76 14.624 22.176 13.6 23.232 13.824C23.776 13.92 23.84 14.24 23.936 16.992L24.032 20.096L21.632 21.216C20.32 21.856 19.168 22.528 19.04 22.72C18.784 23.136 13.216 23.136 12.96 22.72C12.832 22.528 11.616 21.824 10.208 21.12L7.67998 19.84V17.408C7.67998 14.624 8.03198 13.664 9.05598 13.824C9.72798 13.92 9.75998 14.112 9.85598 16.864ZM29.184 14.304C29.504 14.592 29.76 15.232 29.76 15.712C29.76 16.928 27.328 21.92 26.464 22.464C25.6 23.04 20.96 24.96 20.512 24.96C20.32 24.96 20.16 24.704 20.16 24.384C20.16 23.968 20.992 23.392 23.008 22.432C25.76 21.056 25.856 20.992 26.848 18.976C27.392 17.856 27.84 16.736 27.84 16.48C27.84 15.712 26.4 15.904 25.952 16.704C25.632 17.344 25.6 17.312 25.728 16.192C26.016 14.016 27.776 13.024 29.184 14.304ZM20.16 17.6V18.56H15.84H11.52V17.6V16.64H15.84H20.16V17.6Z" fill="black"/>
</svg>
