<svg width="81" height="63" viewBox="0 0 81 63" fill="none" xmlns="http://www.w3.org/2000/svg">
<path d="M10.0178 1.26001C6.65781 2.94001 2.73781 6.94001 1.21781 10.06C-0.542185 13.82 -0.382185 21.74 1.61782 25.58C2.97782 28.3 3.21781 30.3 3.21781 40.62C3.21781 48.78 3.53781 52.78 4.17781 53.42C4.73781 53.98 6.49781 54.38 8.17781 54.38C10.4178 54.38 11.2178 54.7 11.2178 55.66C11.2178 56.38 12.4178 58.14 13.9378 59.66C16.3378 62.06 17.1378 62.38 20.8178 62.38C24.4978 62.38 25.2978 62.06 27.6978 59.66C29.2178 58.14 30.4178 56.38 30.4178 55.66C30.4178 54.54 31.8578 54.38 41.6178 54.38C51.3778 54.38 52.8178 54.54 52.8178 55.66C52.8178 56.38 54.0178 58.14 55.5378 59.66C57.9378 62.06 58.7378 62.38 62.4178 62.38C66.0978 62.38 66.8978 62.06 69.2978 59.66C70.8178 58.14 72.0178 56.38 72.0178 55.66C72.0178 54.7 72.8178 54.38 75.0578 54.38C76.7378 54.38 78.4978 53.98 79.0578 53.42C79.6978 52.78 80.0178 48.94 80.0178 41.5V30.54L76.6578 25.58C74.8178 22.78 72.0178 19.18 70.4178 17.42L67.4578 14.38H58.5778H49.6178V11.34C49.6178 9.66001 49.2178 7.90001 48.6578 7.34001C48.0178 6.70001 44.8178 6.38001 39.6178 6.38001C32.0178 6.38001 31.3778 6.22001 29.6978 4.46001C28.6578 3.34001 26.6578 1.90001 25.2178 1.26001C21.7778 -0.419994 13.1378 -0.419994 10.0178 1.26001ZM24.8178 5.74001C29.5378 9.02001 30.8178 11.5 30.8178 17.58C30.8178 23.5 29.6978 25.82 25.2978 29.1C22.0978 31.5 13.0578 31.5 9.85781 29.1C5.77781 26.06 4.01781 22.62 4.01781 17.58C4.01781 12.3 5.93781 8.78001 10.3378 5.82001C14.0978 3.26001 21.1378 3.26001 24.8178 5.74001ZM45.4578 10.54C46.8178 11.9 46.8178 48.86 45.4578 50.22C44.8178 50.86 41.8578 51.18 37.4578 51.18C31.5378 51.18 30.4178 50.94 30.4178 49.9C30.4178 49.18 29.2178 47.42 27.6978 45.9C25.2978 43.5 24.4978 43.18 20.8178 43.18C17.1378 43.18 16.3378 43.5 13.9378 45.9C12.4178 47.42 11.2178 49.18 11.2178 49.9C11.2178 51.42 8.73781 51.58 7.37781 50.22C6.73781 49.58 6.41781 46.3 6.41781 40.62V31.98L9.37781 33.58C13.4578 35.74 21.2978 35.74 25.5378 33.66C28.8978 31.9 33.2978 27.26 34.4978 24.22C35.4578 21.58 35.4578 13.02 34.4178 11.1C33.6178 9.66001 33.8578 9.58001 39.0578 9.58001C42.1778 9.58001 44.8978 9.98001 45.4578 10.54ZM65.6978 19.18L67.6178 20.7L62.8178 20.78C60.0978 20.78 57.5378 21.18 56.9778 21.74C55.6978 23.02 55.6978 34.54 56.9778 35.82C57.6178 36.46 61.1378 36.78 67.3778 36.78H76.8178V43.02C76.8178 46.78 76.4178 49.66 75.8578 50.22C74.4978 51.58 72.0178 51.42 72.0178 49.9C72.0178 49.18 70.8178 47.42 69.2978 45.9C66.8978 43.5 66.0978 43.18 62.4178 43.18C58.7378 43.18 57.9378 43.5 55.5378 45.9C54.0178 47.42 52.8178 49.18 52.8178 49.9C52.8178 51.42 51.9378 51.58 50.5778 50.22C49.2178 48.86 49.2178 19.9 50.5778 18.54C51.1378 17.98 53.9378 17.58 57.6978 17.58C62.6578 17.58 64.1778 17.9 65.6978 19.18ZM73.3778 28.3C74.8178 30.38 76.0178 32.46 76.0178 32.86C76.0178 33.98 61.2978 33.74 60.1778 32.62C58.8978 31.34 58.9778 26.14 60.1778 24.94C60.8178 24.3 62.9778 23.98 65.9378 24.14C70.5778 24.38 70.7378 24.46 73.3778 28.3ZM24.8178 48.78C28.2578 52.22 25.6978 58.38 20.8178 58.38C17.7778 58.38 15.2178 55.82 15.2178 52.78C15.2178 49.74 17.7778 47.18 20.8178 47.18C22.1778 47.18 23.9378 47.9 24.8178 48.78ZM66.4178 48.78C69.8578 52.22 67.2978 58.38 62.4178 58.38C59.3778 58.38 56.8178 55.82 56.8178 52.78C56.8178 49.74 59.3778 47.18 62.4178 47.18C63.7778 47.18 65.5378 47.9 66.4178 48.78Z" fill="black"/>
<path d="M16.0178 9.57998C16.0178 14.46 14.8178 17.98 12.4978 19.9C10.8178 21.26 10.8178 23.98 12.4978 23.98C13.6178 23.98 15.2978 22.86 19.8578 19.1C20.4978 18.54 20.6578 17.66 20.3378 16.86C19.9378 16.14 19.5378 13.18 19.3778 10.14C19.1378 5.49998 18.8978 4.77998 17.5378 4.77998C16.1778 4.77998 16.0178 5.41998 16.0178 9.57998Z" fill="black"/>
</svg>
