<svg width="32" height="32" viewBox="0 0 32 32" fill="none" xmlns="http://www.w3.org/2000/svg">
<path d="M6.08001 3.48799C1.28001 5.27999 0.128012 5.79199 0.0640118 6.33599C1.18323e-05 6.68799 0.608012 7.99999 1.40801 9.24799L2.88001 11.52L1.40801 13.792C0.608012 15.04 1.18323e-05 16.352 0.0640118 16.704C0.128012 17.152 0.640012 17.536 1.60001 17.888L3.04001 18.432L3.20001 22.368L3.36001 26.336L9.28001 28.512C12.544 29.696 15.552 30.688 16 30.688C16.448 30.688 19.456 29.728 22.72 28.512L28.64 26.336L28.8 19.008L28.96 11.68L30.496 9.34399C31.36 7.99999 32 6.68799 31.936 6.33599C31.872 5.79199 30.752 5.27999 25.92 3.48799C22.656 2.27199 19.68 1.31199 19.296 1.27999C18.784 1.27999 18.304 1.79199 17.408 3.19999C16.768 4.25599 16.128 5.11999 16 5.11999C15.872 5.11999 15.232 4.25599 14.592 3.19999C13.696 1.79199 13.216 1.27999 12.704 1.27999C12.32 1.31199 9.34401 2.30399 6.08001 3.48799ZM13.984 5.43999L14.72 6.62399L9.50401 8.57599C3.64801 10.752 4.35201 10.784 2.65601 7.99999L1.95201 6.81599L7.13601 4.89599C12.992 2.71999 12.32 2.65599 13.984 5.43999ZM26.016 5.31199C27.36 5.82399 28.48 6.30399 28.48 6.39999C28.48 6.49599 27.2 7.03999 25.664 7.61599L22.848 8.67199L20.064 7.64799L17.28 6.62399L17.984 5.47199C18.368 4.83199 18.88 3.99999 19.136 3.61599L19.552 2.91199L21.536 3.64799C22.624 4.06399 24.64 4.79999 26.016 5.31199ZM18.272 8.76799C20.256 9.50399 20.288 9.56799 19.488 9.85599C18.944 10.08 18.08 11.072 17.152 12.608L15.648 15.008L13.504 14.176C12.32 13.728 10.304 12.992 9.05601 12.544C7.77601 12.096 6.72001 11.648 6.72001 11.52C6.72001 11.328 15.264 8.06399 15.872 8.03199C16.064 7.99999 17.152 8.35199 18.272 8.76799ZM28.576 9.31199C28.256 9.85599 27.776 10.464 27.52 10.688C26.912 11.2 18.592 14.24 18.4 14.016C18.304 13.92 18.624 13.312 19.104 12.64C19.904 11.584 20.512 11.264 24.16 9.91999C29.248 8.03199 29.344 8.03199 28.576 9.31199ZM11.424 15.2L14.688 16.416L13.984 17.6C12.288 20.416 12.96 20.352 7.20001 18.176C4.38401 17.152 2.08001 16.256 2.01601 16.224C1.98401 16.192 2.46401 15.328 3.07201 14.336L4.19201 12.512L6.17601 13.248C7.26401 13.664 9.63201 14.528 11.424 15.2ZM27.456 18.912L27.36 25.024L22.24 26.912C19.424 27.936 17.024 28.8 16.864 28.8C16.736 28.8 16.672 26.048 16.704 22.688L16.8 16.576L21.76 14.72C24.48 13.696 26.912 12.864 27.136 12.832C27.456 12.8 27.52 14.112 27.456 18.912ZM9.21601 20.672C10.848 21.28 12.448 21.76 12.768 21.76C13.12 21.76 13.76 21.152 14.368 20.224L15.36 18.72V23.744C15.36 26.528 15.264 28.8 15.136 28.8C14.976 28.8 12.576 27.936 9.76001 26.912L4.64001 25.024L4.54401 21.952L4.44801 18.88L5.34401 19.232C5.82401 19.424 7.58401 20.064 9.21601 20.672Z" fill="black"/>
</svg>
