<svg width="32" height="32" viewBox="0 0 32 32" fill="none" xmlns="http://www.w3.org/2000/svg">
<rect width="32" height="32" rx="10.3226" fill="white"/>
<path d="M16.765 21.6997L16.765 18.1419C16.765 17.227 17.5067 16.4853 18.4216 16.4853L21.9794 16.4853L19.3001 16.8256C18.1882 16.9668 17.3085 17.8348 17.1525 18.9446L16.765 21.6997Z" fill="black"/>
<path fill-rule="evenodd" clip-rule="evenodd" d="M3.62396 16.4854C2.74482 16.4854 2.81993 17.4167 3.69035 17.5403L11.798 18.6911C13.3359 18.9094 14.5157 20.1669 14.6356 21.7156L15.2486 29.6339C15.2822 30.0678 15.74 30.1622 15.74 29.727V29.727V18.1419C15.74 17.227 14.9983 16.4854 14.0834 16.4854H3.62396V16.4854Z" fill="black"/>
<path fill-rule="evenodd" clip-rule="evenodd" d="M28.854 15.5298C29.8805 15.5298 29.7747 14.4384 28.7585 14.2932L20.7896 13.1548C19.2524 12.9352 18.0739 11.6773 17.9548 10.1291L17.3591 2.38487C17.3251 1.94229 16.8575 1.84428 16.8575 2.28816V2.28816L16.8575 13.8732C16.8575 14.7881 17.5992 15.5298 18.514 15.5298L28.854 15.5298V15.5298Z" fill="#0A6CA4"/>
</svg>
