<svg width="32" height="32" viewBox="0 0 32 32" fill="none" xmlns="http://www.w3.org/2000/svg">
<path d="M8 15.5426C8 14.452 8 13.908 8.20267 13.4173C8.40533 12.928 8.792 12.5413 9.56267 11.7706L10.4373 10.896C11.208 10.1253 11.5947 9.73865 12.084 9.53598C12.5747 9.33331 13.12 9.33331 14.2093 9.33331H17.7907C18.8813 9.33331 19.4253 9.33331 19.916 9.53598C20.4067 9.73865 20.792 10.1253 21.5627 10.896L22.4373 11.7706C23.2093 12.5413 23.5933 12.928 23.7973 13.4173C24 13.908 24 14.452 24 15.5426V21.3333C24 23.848 24 25.104 23.2187 25.8853C22.4373 26.6666 21.1813 26.6666 18.6667 26.6666H13.3333C10.8187 26.6666 9.56267 26.6666 8.78133 25.8853C8 25.104 8 23.848 8 21.3333V15.5426Z" stroke="black"/>
<path d="M12 9.33331L8.18531 6.7893C8.13047 6.75262 8.06596 6.73303 7.99998 6.73303C7.93399 6.73303 7.86949 6.75262 7.81465 6.7893L4.33865 9.10797C4.29757 9.13533 4.26309 9.17148 4.23768 9.21379C4.21228 9.2561 4.19658 9.30352 4.19174 9.35264C4.18689 9.40175 4.19301 9.45133 4.20965 9.49779C4.22629 9.54425 4.25305 9.58644 4.28798 9.62131L7.72398 13.0573C7.81151 13.1449 7.88093 13.2488 7.92829 13.3632C7.97564 13.4776 8 13.6002 7.99998 13.724C7.99998 14.244 8.42264 14.6666 8.94264 14.6666H23.0573C23.5773 14.6666 24 14.244 24 13.724C24.0004 13.474 24.0996 13.2344 24.276 13.0573L27.712 9.62131C27.7469 9.58644 27.7737 9.54425 27.7903 9.49779C27.8069 9.45133 27.8131 9.40175 27.8082 9.35264C27.8034 9.30352 27.7877 9.2561 27.7623 9.21379C27.7369 9.17148 27.7024 9.13533 27.6613 9.10797L24.1866 6.7893C24.1318 6.75262 24.0673 6.73303 24.0013 6.73303C23.9353 6.73303 23.8708 6.75262 23.816 6.7893L20 9.33331" stroke="black" stroke-linecap="round"/>
</svg>
