<svg width="36" height="36" viewBox="0 0 36 36" fill="none" xmlns="http://www.w3.org/2000/svg">
<path d="M31.5 17.25V24C31.5 24.3978 31.342 24.7794 31.0607 25.0607C30.7794 25.342 30.3978 25.5 30 25.5H27.75M31.5 17.25H21M31.5 17.25L28.896 11.391C28.7782 11.1258 28.5859 10.9004 28.3426 10.7423C28.0992 10.5841 27.8152 10.5 27.525 10.5H21M27.75 25.5C27.75 26.2956 27.4339 27.0587 26.8713 27.6213C26.3087 28.1839 25.5456 28.5 24.75 28.5C23.9544 28.5 23.1913 28.1839 22.6287 27.6213C22.0661 27.0587 21.75 26.2956 21.75 25.5M27.75 25.5C27.75 24.7044 27.4339 23.9413 26.8713 23.3787C26.3087 22.8161 25.5456 22.5 24.75 22.5C23.9544 22.5 23.1913 22.8161 22.6287 23.3787C22.0661 23.9413 21.75 24.7044 21.75 25.5M21 17.25V25.5M21 17.25V10.5M21 10.5V9C21 8.60218 20.842 8.22064 20.5607 7.93934C20.2794 7.65804 19.8978 7.5 19.5 7.5H6C5.60218 7.5 5.22064 7.65804 4.93934 7.93934C4.65804 8.22064 4.5 8.60218 4.5 9V24C4.5 24.3978 4.65804 24.7794 4.93934 25.0607C5.22064 25.342 5.60218 25.5 6 25.5H8.25M8.25 25.5C8.25 26.2956 8.56607 27.0587 9.12868 27.6213C9.69129 28.1839 10.4544 28.5 11.25 28.5C12.0456 28.5 12.8087 28.1839 13.3713 27.6213C13.9339 27.0587 14.25 26.2956 14.25 25.5M8.25 25.5C8.25 24.7044 8.56607 23.9413 9.12868 23.3787C9.69129 22.8161 10.4544 22.5 11.25 22.5C12.0456 22.5 12.8087 22.8161 13.3713 23.3787C13.9339 23.9413 14.25 24.7044 14.25 25.5M14.25 25.5H21M21 25.5H21.75" stroke="white" stroke-width="2" stroke-linecap="round" stroke-linejoin="round"/>
</svg>
