<svg width="32" height="32" viewBox="0 0 32 32" fill="none" xmlns="http://www.w3.org/2000/svg">
<path d="M8.94933 25.3334H23.052C23.2911 25.3334 23.496 25.2351 23.6667 25.0387C23.8373 24.8422 23.9058 24.6245 23.872 24.3854L22.2027 12.692C22.168 12.4876 22.0738 12.3209 21.92 12.192C21.7662 12.064 21.5867 12 21.3813 12H10.6173C10.4129 12 10.2333 12.064 10.0787 12.192C9.92488 12.32 9.8311 12.4867 9.79733 12.692L8.12799 24.3854C8.09422 24.6245 8.16266 24.8422 8.33333 25.0387C8.50399 25.2351 8.71022 25.3334 8.94933 25.3334ZM16 10.6667C16.3778 10.6667 16.6947 10.5387 16.9507 10.2827C17.2067 10.0267 17.3342 9.71024 17.3333 9.33335C17.3324 8.95646 17.2044 8.64002 16.9493 8.38402C16.6942 8.12802 16.3778 8.00002 16 8.00002C15.6222 8.00002 15.3058 8.12802 15.0507 8.38402C14.7955 8.64002 14.6675 8.95646 14.6667 9.33335C14.6658 9.71024 14.7938 10.0271 15.0507 10.284C15.3075 10.5409 15.624 10.6685 16 10.6667ZM18.28 10.6667H21.408C21.9547 10.6667 22.4258 10.8418 22.8213 11.192C23.216 11.5422 23.4515 11.9885 23.528 12.5307L25.1973 24.224C25.2916 24.8694 25.1244 25.4378 24.696 25.9294C24.2684 26.4209 23.7204 26.6667 23.052 26.6667H8.94799C8.27955 26.6667 7.73111 26.4209 7.30266 25.9294C6.87422 25.4378 6.7071 24.8689 6.80133 24.2227L8.47066 12.5307C8.54799 11.9885 8.78355 11.5422 9.17733 11.192C9.57466 10.8418 10.0467 10.6667 10.5933 10.6667H13.7227C13.6044 10.4782 13.5102 10.2702 13.44 10.0427C13.3689 9.81424 13.3333 9.5778 13.3333 9.33335C13.3333 8.58135 13.5898 7.94891 14.1027 7.43602C14.6155 6.92313 15.248 6.66669 16 6.66669C16.752 6.66669 17.3844 6.92313 17.8973 7.43602C18.4102 7.94891 18.6667 8.58135 18.6667 9.33335C18.6667 9.5778 18.6315 9.81424 18.5613 10.0427C18.4911 10.2702 18.3973 10.4782 18.28 10.6667Z" fill="black"/>
</svg>
