<svg width="39" height="32" viewBox="0 0 39 32" fill="none" xmlns="http://www.w3.org/2000/svg">
<path d="M2.65394 13.7759C13.0205 9.26042 19.9316 6.28341 23.3871 4.8449C33.2648 0.737705 35.3148 0.0243771 36.6537 0.000210567C36.9481 -0.00451162 37.6037 0.068265 38.0315 0.414096C38.387 0.70576 38.487 1.1002 38.537 1.37715C38.5814 1.65381 38.6426 2.28436 38.5926 2.77658C38.0592 8.39876 35.7426 22.042 34.5648 28.3392C34.0704 31.0036 33.087 31.8969 32.1371 31.9841C30.0704 32.1741 28.5037 30.6197 26.5038 29.3092C23.376 27.2575 21.6094 25.9809 18.5705 23.9792C15.0594 21.6659 17.3372 20.3942 19.3371 18.3165C19.8594 17.7726 28.9593 9.49764 29.1315 8.74709C29.1537 8.6532 29.176 8.3032 28.9649 8.11876C28.7593 7.93376 28.4538 7.9971 28.2315 8.0471C27.9149 8.11821 22.9205 11.4226 13.2316 17.9598C11.815 18.9342 10.5317 19.4092 9.37611 19.3842C8.10945 19.357 5.66503 18.6665 3.84838 18.0765C1.62617 17.3526 -0.146041 16.9698 0.00951333 15.7404C0.0872905 15.1004 0.970618 14.4454 2.65394 13.7759Z" fill="white"/>
</svg>
