<svg width="28" height="28" viewBox="0 0 28 28" fill="none" xmlns="http://www.w3.org/2000/svg">
<path d="M14.7071 4.29289C14.3166 3.90237 13.6834 3.90237 13.2929 4.29289L6.92893 10.6569C6.53841 11.0474 6.53841 11.6805 6.92893 12.0711C7.31946 12.4616 7.95262 12.4616 8.34315 12.0711L14 6.41421L19.6569 12.0711C20.0474 12.4616 20.6805 12.4616 21.0711 12.0711C21.4616 11.6805 21.4616 11.0474 21.0711 10.6569L14.7071 4.29289ZM13 23C13 23.5523 13.4477 24 14 24C14.5523 24 15 23.5523 15 23H13ZM13 5V23H15V5H13Z" fill="black"/>
</svg>
