<svg width="32" height="32" viewBox="0 0 32 32" fill="none" xmlns="http://www.w3.org/2000/svg">
<path d="M11.328 0.959983C9.95197 1.50398 10.144 1.91998 11.808 1.91998C13.216 1.91998 13.44 1.82398 13.44 1.27998C13.44 0.575983 12.576 0.447983 11.328 0.959983Z" fill="black"/>
<path d="M4.83201 2.36799C3.77601 2.94399 3.23201 4.06399 3.20001 5.69599C3.20001 8.41599 4.67201 9.75999 7.48801 9.56799C8.41601 9.47199 8.83201 9.53599 8.64001 9.72799C8.44801 9.91999 8.32001 10.496 8.32001 11.04C8.32001 11.808 9.05601 13.12 11.2 16.192C14.656 21.12 14.72 21.44 12.8 25.504C11.36 28.576 11.232 29.792 12.16 30.72C12.96 31.52 14.752 31.552 15.456 30.784C16.064 30.112 18.56 24.896 18.56 24.32C18.56 24.032 18.656 24 19.008 24.288C19.328 24.544 19.36 24.992 19.168 26.016C18.464 29.632 19.04 31.04 21.184 31.04C22.848 31.04 23.328 30.272 23.968 26.592L24.576 23.36L23.552 22.016C22.016 20.032 22.464 19.392 26.56 17.472C28.32 16.672 29.76 15.872 29.76 15.744C29.76 15.424 25.12 5.47199 24.864 5.21599C24.608 4.99199 14.08 9.95199 14.08 10.304C14.08 10.464 14.304 11.04 14.592 11.552C15.072 12.48 15.072 12.512 14.432 12.192C14.08 12 13.696 11.68 13.6 11.52C13.312 11.072 12.256 11.104 11.968 11.584C11.584 12.192 15.04 15.04 18.432 16.992C20.096 17.92 21.44 18.88 21.44 19.104C21.44 19.328 21.376 19.52 21.248 19.52C20.704 19.52 14.624 15.712 12.992 14.336C9.63201 11.52 9.21601 10.72 10.816 10.4C12.544 10.016 14.08 9.50399 14.08 9.24799C14.08 8.86399 11.936 8.54399 10.688 8.73599L9.56801 8.92799L10.24 8.09599C10.688 7.51999 10.88 6.78399 10.88 5.69599C10.88 4.31999 10.752 3.96799 9.79201 3.00799C8.86401 2.07999 8.51201 1.91999 7.16801 1.91999C6.30401 1.95199 5.24801 2.14399 4.83201 2.36799ZM8.12801 3.71199C8.41601 3.83999 8.80001 4.15999 8.92801 4.44799C9.18401 4.89599 9.08801 4.99199 8.38401 4.95999C7.71201 4.95999 7.39201 5.21599 6.97601 6.07999C6.24001 7.48799 6.72001 7.67999 8.16001 6.55999C9.02401 5.91999 9.28001 5.85599 9.28001 6.20799C9.28001 7.71199 6.59201 8.57599 5.37601 7.45599C4.64001 6.81599 4.60801 4.89599 5.34401 4.09599C5.85601 3.51999 7.16801 3.32799 8.12801 3.71199ZM25.856 11.04C26.752 13.088 27.52 14.848 27.52 14.976C27.52 15.104 26.4 15.744 25.024 16.352L22.56 17.472L20.192 16.064C18.112 14.784 17.76 14.432 17.088 12.896C16.672 11.968 16.32 11.104 16.32 11.008C16.32 10.816 23.392 7.39199 23.84 7.39199C24.032 7.39199 24.928 9.02399 25.856 11.04ZM18.592 20.064C19.744 20.736 21.184 21.824 21.76 22.496L22.816 23.712L22.432 26.016C21.888 29.248 21.792 29.44 21.056 29.44C20.448 29.44 20.416 29.312 20.576 27.744C20.704 26.816 20.864 25.632 20.992 25.088C21.152 24.32 20.928 23.872 19.808 22.464C18.08 20.352 17.28 20.256 17.28 22.144C17.28 23.744 14.72 29.536 13.92 29.696C13.024 29.888 13.088 28.928 14.24 26.432C15.2 24.32 15.36 23.616 15.36 21.568C15.36 19.84 15.2 18.944 14.816 18.304L14.24 17.44L15.36 18.144C15.968 18.528 17.44 19.392 18.592 20.064Z" fill="black"/>
<path d="M1.95199 8.128C1.72799 8.384 1.47199 9.088 1.37599 9.728C1.21599 10.752 1.27999 10.88 1.88799 10.88C2.49599 10.88 2.55999 10.688 2.55999 9.28C2.55999 7.552 2.49599 7.456 1.95199 8.128Z" fill="black"/>
</svg>
