<svg width="32" height="32" viewBox="0 0 32 32" fill="none" xmlns="http://www.w3.org/2000/svg">
<path d="M2.56 7.36V12.16H5.44H8.32V13.12V14.08H4.16H0V16C0 17.696 0.064 17.92 0.64 17.92C1.248 17.92 1.28 18.144 1.28 24.32C1.28 30.496 1.312 30.72 1.92 30.72C2.528 30.72 2.56 30.496 2.56 26.56V22.4H10.56H18.56V26.56V30.72H24.64H30.72V24.32C30.72 18.144 30.752 17.92 31.36 17.92C31.936 17.92 32 17.696 32 16C32 14.304 31.936 14.08 31.36 14.08C30.752 14.08 30.72 13.856 30.72 10.56V7.04H29.44C28.384 7.04 28.16 6.944 28.16 6.4C28.16 5.824 27.936 5.76 26.24 5.76H24.32V7.04V8.32H23.04H21.76V11.2V14.08H16.96H12.16V13.12V12.16H15.04H17.92V7.36V2.56H10.24H2.56V7.36ZM16.64 7.36V10.88H10.24H3.84V7.36V3.84H10.24H16.64V7.36ZM26.88 10.56C26.88 13.856 26.848 14.08 26.24 14.08C25.632 14.08 25.6 13.856 25.6 10.56C25.6 7.264 25.632 7.04 26.24 7.04C26.848 7.04 26.88 7.264 26.88 10.56ZM29.44 11.2C29.44 13.856 29.408 14.08 28.8 14.08C28.192 14.08 28.16 13.856 28.16 11.2C28.16 8.544 28.192 8.32 28.8 8.32C29.408 8.32 29.44 8.544 29.44 11.2ZM24.32 11.84C24.32 13.856 24.256 14.08 23.68 14.08C23.104 14.08 23.04 13.856 23.04 11.84C23.04 9.824 23.104 9.6 23.68 9.6C24.256 9.6 24.32 9.824 24.32 11.84ZM10.88 13.12C10.88 13.856 10.752 14.08 10.24 14.08C9.728 14.08 9.6 13.856 9.6 13.12C9.6 12.384 9.728 12.16 10.24 12.16C10.752 12.16 10.88 12.384 10.88 13.12ZM30.72 16C30.72 16.64 30.496 16.64 16 16.64C1.504 16.64 1.28 16.64 1.28 16C1.28 15.36 1.504 15.36 16 15.36C30.496 15.36 30.72 15.36 30.72 16ZM18.56 19.52V21.12H10.56H2.56V19.52V17.92H10.56H18.56V19.52ZM29.44 20.48V23.04H24.64H19.84V20.48V17.92H24.64H29.44V20.48ZM29.44 26.88V29.44H24.64H19.84V26.88V24.32H24.64H29.44V26.88Z" fill="black"/>
<path d="M22.72 20.48C22.72 21.056 22.944 21.12 24.64 21.12C26.336 21.12 26.56 21.056 26.56 20.48C26.56 19.904 26.336 19.84 24.64 19.84C22.944 19.84 22.72 19.904 22.72 20.48Z" fill="black"/>
<path d="M22.72 26.88C22.72 27.456 22.944 27.52 24.64 27.52C26.336 27.52 26.56 27.456 26.56 26.88C26.56 26.304 26.336 26.24 24.64 26.24C22.944 26.24 22.72 26.304 22.72 26.88Z" fill="black"/>
</svg>
