<svg width="32" height="32" viewBox="0 0 32 32" fill="none" xmlns="http://www.w3.org/2000/svg">
<path d="M5.47198 4.992L1.91998 9.056V19.232V29.44H16H30.08V19.232V9.056L26.528 4.992C24.576 2.784 22.88 0.960004 22.72 0.960004C22.592 0.960004 21.056 2.528 19.36 4.48C17.664 6.4 16.16 8 16 8C15.84 8 14.336 6.4 12.64 4.48C10.944 2.528 9.40798 0.960004 9.27998 0.960004C9.11998 0.960004 7.42398 2.784 5.47198 4.992ZM12.448 6.784L15.328 10.08L15.36 19.104V28.16H9.27998H3.19998V19.104L3.23198 10.08L6.11198 6.784C7.71198 4.992 9.11998 3.52 9.27998 3.52C9.43998 3.52 10.848 4.992 12.448 6.784ZM25.888 6.784L28.768 10.08L28.8 19.104V28.16H22.72H16.64V19.104L16.672 10.08L19.552 6.784C21.152 4.992 22.56 3.52 22.72 3.52C22.88 3.52 24.288 4.992 25.888 6.784Z" fill="black"/>
<path d="M4.47998 13.12V15.36H6.39998H8.31998V13.12V10.88H6.39998H4.47998V13.12ZM7.03998 13.12C7.03998 13.856 6.91198 14.08 6.39998 14.08C5.88798 14.08 5.75998 13.856 5.75998 13.12C5.75998 12.384 5.88798 12.16 6.39998 12.16C6.91198 12.16 7.03998 12.384 7.03998 13.12Z" fill="black"/>
<path d="M10.24 13.12V15.36H12.16H14.08V13.12V10.88H12.16H10.24V13.12ZM12.8 13.12C12.8 13.856 12.672 14.08 12.16 14.08C11.648 14.08 11.52 13.856 11.52 13.12C11.52 12.384 11.648 12.16 12.16 12.16C12.672 12.16 12.8 12.384 12.8 13.12Z" fill="black"/>
<path d="M4.47998 18.88V21.12H6.39998H8.31998V18.88V16.64H6.39998H4.47998V18.88ZM7.03998 18.88C7.03998 19.616 6.91198 19.84 6.39998 19.84C5.88798 19.84 5.75998 19.616 5.75998 18.88C5.75998 18.144 5.88798 17.92 6.39998 17.92C6.91198 17.92 7.03998 18.144 7.03998 18.88Z" fill="black"/>
<path d="M10.24 18.88V21.12H12.16H14.08V18.88V16.64H12.16H10.24V18.88ZM12.8 18.88C12.8 19.616 12.672 19.84 12.16 19.84C11.648 19.84 11.52 19.616 11.52 18.88C11.52 18.144 11.648 17.92 12.16 17.92C12.672 17.92 12.8 18.144 12.8 18.88Z" fill="black"/>
<path d="M4.47998 24.64V26.88H6.39998H8.31998V24.64V22.4H6.39998H4.47998V24.64ZM7.03998 24.64C7.03998 25.376 6.91198 25.6 6.39998 25.6C5.88798 25.6 5.75998 25.376 5.75998 24.64C5.75998 23.904 5.88798 23.68 6.39998 23.68C6.91198 23.68 7.03998 23.904 7.03998 24.64Z" fill="black"/>
<path d="M10.24 24.64V26.88H12.16H14.08V24.64V22.4H12.16H10.24V24.64ZM12.8 24.64C12.8 25.376 12.672 25.6 12.16 25.6C11.648 25.6 11.52 25.376 11.52 24.64C11.52 23.904 11.648 23.68 12.16 23.68C12.672 23.68 12.8 23.904 12.8 24.64Z" fill="black"/>
<path d="M17.92 13.12V15.36H19.84H21.76V13.12V10.88H19.84H17.92V13.12ZM20.48 13.12C20.48 13.856 20.352 14.08 19.84 14.08C19.328 14.08 19.2 13.856 19.2 13.12C19.2 12.384 19.328 12.16 19.84 12.16C20.352 12.16 20.48 12.384 20.48 13.12Z" fill="black"/>
<path d="M23.68 13.12V15.36H25.6H27.52V13.12V10.88H25.6H23.68V13.12ZM26.24 13.12C26.24 13.856 26.112 14.08 25.6 14.08C25.088 14.08 24.96 13.856 24.96 13.12C24.96 12.384 25.088 12.16 25.6 12.16C26.112 12.16 26.24 12.384 26.24 13.12Z" fill="black"/>
<path d="M17.92 18.88V21.12H19.84H21.76V18.88V16.64H19.84H17.92V18.88ZM20.48 18.88C20.48 19.616 20.352 19.84 19.84 19.84C19.328 19.84 19.2 19.616 19.2 18.88C19.2 18.144 19.328 17.92 19.84 17.92C20.352 17.92 20.48 18.144 20.48 18.88Z" fill="black"/>
<path d="M23.68 18.88V21.12H25.6H27.52V18.88V16.64H25.6H23.68V18.88ZM26.24 18.88C26.24 19.616 26.112 19.84 25.6 19.84C25.088 19.84 24.96 19.616 24.96 18.88C24.96 18.144 25.088 17.92 25.6 17.92C26.112 17.92 26.24 18.144 26.24 18.88Z" fill="black"/>
<path d="M17.92 24.64V26.88H19.84H21.76V24.64V22.4H19.84H17.92V24.64ZM20.48 24.64C20.48 25.376 20.352 25.6 19.84 25.6C19.328 25.6 19.2 25.376 19.2 24.64C19.2 23.904 19.328 23.68 19.84 23.68C20.352 23.68 20.48 23.904 20.48 24.64Z" fill="black"/>
<path d="M23.68 24.64V26.88H25.6H27.52V24.64V22.4H25.6H23.68V24.64ZM26.24 24.64C26.24 25.376 26.112 25.6 25.6 25.6C25.088 25.6 24.96 25.376 24.96 24.64C24.96 23.904 25.088 23.68 25.6 23.68C26.112 23.68 26.24 23.904 26.24 24.64Z" fill="black"/>
</svg>
