<svg width="68" height="68" viewBox="0 0 68 68" fill="none" xmlns="http://www.w3.org/2000/svg">
<path d="M21.12 0.30439L9.12 0.70439L4.56 4.62439L0 8.46439V37.9844V67.5044H33.6H67.2V37.9844V8.46439L62.32 4.38439L57.44 0.30439H46.4C40.32 0.30439 34.88 0.22439 34.24 0.0643898C33.68 -0.0956103 27.76 0.0643898 21.12 0.30439ZM32 5.90439V8.30439H19.44H6.88L9.6 5.90439C12.4 3.58439 12.48 3.58439 22.24 3.50439H32V5.90439ZM57.6 5.90439L60.32 8.30439H47.76H35.2V5.90439V3.50439H45.04C54.72 3.58439 54.8 3.58439 57.6 5.90439ZM64 37.9044V64.3044H33.6H3.2V37.9044V11.5044H33.6H64V37.9044Z" fill="black"/>
<path d="M24.96 18.8644C24.4 19.4244 24 20.7844 24 21.9044C24 23.0244 24.4 24.3844 24.96 24.9444C26.24 26.2244 40.96 26.2244 42.24 24.9444C43.44 23.7444 43.44 20.0644 42.24 18.8644C40.96 17.5844 26.24 17.5844 24.96 18.8644ZM39.2 21.9044C39.2 22.3844 36.8 22.7044 33.6 22.7044C30.4 22.7044 28 22.3844 28 21.9044C28 21.4244 30.4 21.1044 33.6 21.1044C36.8 21.1044 39.2 21.4244 39.2 21.9044Z" fill="black"/>
<path d="M40.4 45.9043C38.16 48.2243 38.16 48.3043 39.84 48.3043C41.36 48.3043 41.6 48.7843 41.6 51.5043C41.6 54.1443 41.84 54.7043 43.2 54.7043C44.56 54.7043 44.8 54.1443 44.8 51.5043C44.8 48.7843 45.04 48.3043 46.56 48.3043C48.24 48.3043 48.24 48.2243 46 45.9043C44.72 44.5443 43.44 43.5043 43.2 43.5043C42.96 43.5043 41.68 44.5443 40.4 45.9043Z" fill="black"/>
<path d="M51.6001 45.9043C49.3601 48.2243 49.3601 48.3043 51.0401 48.3043C52.5601 48.3043 52.8001 48.7843 52.8001 51.5043C52.8001 54.1443 53.0401 54.7043 54.4001 54.7043C55.7601 54.7043 56.0001 54.1443 56.0001 51.5043C56.0001 48.7843 56.2401 48.3043 57.7601 48.3043C59.4401 48.3043 59.4401 48.2243 57.2001 45.9043C55.9201 44.5443 54.6401 43.5043 54.4001 43.5043C54.1601 43.5043 52.8801 44.5443 51.6001 45.9043Z" fill="black"/>
<path d="M38.4 57.9044C38.4 59.4244 38.96 59.5044 48.8 59.5044C58.64 59.5044 59.2 59.4244 59.2 57.9044C59.2 56.3844 58.64 56.3044 48.8 56.3044C38.96 56.3044 38.4 56.3844 38.4 57.9044Z" fill="black"/>
</svg>
