<svg width="28" height="28" viewBox="0 0 28 28" fill="none" xmlns="http://www.w3.org/2000/svg">
<path d="M4.29289 13.2929C3.90237 13.6834 3.90237 14.3166 4.29289 14.7071L10.6569 21.0711C11.0474 21.4616 11.6805 21.4616 12.0711 21.0711C12.4616 20.6805 12.4616 20.0474 12.0711 19.6569L6.41421 14L12.0711 8.34315C12.4616 7.95262 12.4616 7.31946 12.0711 6.92893C11.6805 6.53841 11.0474 6.53841 10.6569 6.92893L4.29289 13.2929ZM23 15C23.5523 15 24 14.5523 24 14C24 13.4477 23.5523 13 23 13L23 15ZM5 15L23 15L23 13L5 13L5 15Z" fill="black"/>
</svg>
