<svg width="77" height="56" viewBox="0 0 77 56" fill="none" xmlns="http://www.w3.org/2000/svg">
<path d="M36.9574 4C36.9574 7.44 37.1974 8 38.5574 8C39.9174 8 40.1574 7.44 40.1574 4C40.1574 0.56 39.9174 1.78814e-07 38.5574 1.78814e-07C37.1974 1.78814e-07 36.9574 0.56 36.9574 4Z" fill="black"/>
<path d="M23.3573 7.04003C23.3573 9.04003 27.7573 13.12 29.2773 12.56C31.1173 11.84 30.8773 10.4 28.3973 7.84003C25.9173 5.28003 23.3573 4.88003 23.3573 7.04003Z" fill="black"/>
<path d="M48.6373 7.92005C46.3973 10.24 46.2373 12.8 48.3173 12.8C49.8373 12.8 53.7573 8.64005 53.7573 7.04005C53.7573 4.80005 51.1173 5.28005 48.6373 7.92005Z" fill="black"/>
<path d="M31.6774 13.92C29.2774 16.32 28.9574 17.12 28.9574 20.8C28.9574 24.48 29.2774 25.28 31.6774 27.68C34.0774 30.08 34.8774 30.4 38.5574 30.4C42.2374 30.4 43.0374 30.08 45.4374 27.68C47.8374 25.28 48.1574 24.48 48.1574 20.8C48.1574 17.12 47.8374 16.32 45.4374 13.92C43.0374 11.52 42.2374 11.2 38.5574 11.2C34.8774 11.2 34.0774 11.52 31.6774 13.92ZM42.5574 16.8C43.4374 17.68 44.1574 19.44 44.1574 20.8C44.1574 22.16 43.4374 23.92 42.5574 24.8C39.1174 28.24 32.9574 25.68 32.9574 20.8C32.9574 19.44 33.6774 17.68 34.5574 16.8C35.4374 15.92 37.1974 15.2 38.5574 15.2C39.9174 15.2 41.6774 15.92 42.5574 16.8Z" fill="black"/>
<path d="M17.7573 20.8C17.7573 22.16 18.3173 22.4 21.7573 22.4C25.1973 22.4 25.7573 22.16 25.7573 20.8C25.7573 19.44 25.1973 19.2 21.7573 19.2C18.3173 19.2 17.7573 19.44 17.7573 20.8Z" fill="black"/>
<path d="M51.3573 20.8C51.3573 22.16 51.9173 22.4 55.3573 22.4C58.7973 22.4 59.3573 22.16 59.3573 20.8C59.3573 19.44 58.7973 19.2 55.3573 19.2C51.9173 19.2 51.3573 19.44 51.3573 20.8Z" fill="black"/>
<path d="M7.03738 27.68C4.07738 30.72 4.07738 36.48 7.03738 39.52C10.0774 42.48 15.8374 42.48 18.8774 39.52C21.8374 36.48 21.8374 30.72 18.8774 27.68C17.1974 26 15.9974 25.6 12.9574 25.6C9.91738 25.6 8.71738 26 7.03738 27.68ZM15.9974 30.56C17.1974 31.76 17.1974 35.44 15.9974 36.64C15.4374 37.2 14.0774 37.6 12.9574 37.6C11.8374 37.6 10.4774 37.2 9.91738 36.64C9.35738 36.08 8.95738 34.72 8.95738 33.6C8.95738 30.96 10.3174 29.6 12.9574 29.6C14.0774 29.6 15.4374 30 15.9974 30.56Z" fill="black"/>
<path d="M58.2373 27.68C55.2773 30.72 55.2773 36.48 58.2373 39.52C61.2773 42.48 67.0373 42.48 70.0773 39.52C73.0373 36.48 73.0373 30.72 70.0773 27.68C68.3973 26 67.1973 25.6 64.1573 25.6C61.1173 25.6 59.9173 26 58.2373 27.68ZM67.1973 30.56C67.7573 31.12 68.1573 32.48 68.1573 33.6C68.1573 36.24 66.7973 37.6 64.1573 37.6C61.5173 37.6 60.1573 36.24 60.1573 33.6C60.1573 30.96 61.5173 29.6 64.1573 29.6C65.2773 29.6 66.6373 30 67.1973 30.56Z" fill="black"/>
<path d="M25.2774 36.32C23.1174 38.48 22.5574 39.68 22.5574 42.08V45.2L13.3573 44.96C4.23735 44.72 4.15735 44.72 2.15735 46.88C-0.402652 49.6 -0.802652 56 1.59735 56C2.63735 56 3.27735 55.12 3.83735 53.04C4.71735 49.28 7.11735 48 12.9573 48C18.7973 48 21.1974 49.28 22.0774 53.04C22.6374 55.12 23.2774 56 24.3174 56C25.5974 56 25.7574 55.28 25.7574 50.08C25.7574 39.12 27.9974 36.8 38.5574 36.8C49.1174 36.8 51.3574 39.12 51.3574 50.08C51.3574 55.28 51.5174 56 52.7974 56C53.8374 56 54.4774 55.12 55.0374 53.04C55.9174 49.28 58.3174 48 64.1574 48C69.9974 48 72.3974 49.28 73.2774 53.04C73.8374 55.12 74.4774 56 75.5174 56C76.7174 56 76.9574 55.36 76.9574 52.48C76.9574 49.76 76.4774 48.56 74.7974 46.88C72.7174 44.72 72.4774 44.72 63.5974 44.96L54.5574 45.2V42.08C54.5574 39.68 53.9974 38.48 51.8374 36.32L49.1174 33.6H38.5574H27.9974L25.2774 36.32Z" fill="black"/>
</svg>
