<svg width="28" height="28" viewBox="0 0 28 28" fill="none" xmlns="http://www.w3.org/2000/svg">
<path d="M23.7071 14.7071C24.0976 14.3166 24.0976 13.6834 23.7071 13.2929L17.3431 6.92893C16.9526 6.53841 16.3195 6.53841 15.9289 6.92893C15.5384 7.31946 15.5384 7.95262 15.9289 8.34315L21.5858 14L15.9289 19.6569C15.5384 20.0474 15.5384 20.6805 15.9289 21.0711C16.3195 21.4616 16.9526 21.4616 17.3431 21.0711L23.7071 14.7071ZM5 13C4.44772 13 4 13.4477 4 14C4 14.5523 4.44772 15 5 15L5 13ZM23 13L5 13L5 15L23 15L23 13Z" fill="black"/>
</svg>
