<svg width="32" height="32" viewBox="0 0 32 32" fill="none" xmlns="http://www.w3.org/2000/svg">
<path d="M8.06401 6.43199C2.72001 10.592 0.640015 12.416 0.640015 12.864C0.640015 13.408 0.800015 13.504 1.60001 13.312L2.56001 13.12V21.6V30.08H16H29.44V21.6V13.12L30.4 13.312C31.232 13.504 31.36 13.408 31.36 12.864C31.36 12.416 30.528 11.552 28.8 10.208L26.24 8.25599V6.04799V3.83999H24.352C22.688 3.83999 22.432 3.93599 22.336 4.47999C22.24 5.02399 21.824 4.76799 19.392 2.87999C17.824 1.63199 16.288 0.639985 16 0.639985C15.712 0.639985 12.128 3.23199 8.06401 6.43199ZM22.368 7.35999L28.16 11.872V20.352V28.8H24.32H20.48V22.72V16.64H16H11.52V22.72V28.8H7.68001H3.84001V20.352V11.904L9.82401 7.19999C13.12 4.63999 15.968 2.59199 16.192 2.68799C16.416 2.78399 19.2 4.86399 22.368 7.35999ZM24.96 6.07999C24.96 6.97599 24.896 7.03999 24.32 6.71999C23.968 6.52799 23.68 6.07999 23.68 5.75999C23.68 5.34399 23.904 5.11999 24.32 5.11999C24.832 5.11999 24.96 5.34399 24.96 6.07999ZM19.2 23.36V28.8H16H12.8V23.36V17.92H16H19.2V23.36Z" fill="black"/>
</svg>
