<svg width="256" height="256" viewBox="0 0 256 256" fill="none" xmlns="http://www.w3.org/2000/svg">
<rect width="256" height="256" rx="82.5806" fill="white"/>
<path d="M131.343 168.742L131.343 143.324C131.343 136.788 136.642 131.489 143.178 131.489L168.597 131.489L149.455 133.919C141.511 134.928 135.226 141.13 134.111 149.059L131.343 168.742Z" fill="black"/>
<path fill-rule="evenodd" clip-rule="evenodd" d="M37.4589 131.489C31.1763 131.489 31.7133 138.145 37.9335 139.028L95.8581 147.25C106.846 148.81 115.275 157.794 116.131 168.858L120.511 225.428C120.751 228.528 124.021 229.202 124.021 226.093V226.093V143.324C124.021 136.788 118.722 131.489 112.186 131.489H37.4589V131.489Z" fill="black"/>
<path fill-rule="evenodd" clip-rule="evenodd" d="M217.712 124.662C225.046 124.662 224.29 116.864 217.03 115.827L160.097 107.694C149.114 106.125 140.694 97.1383 139.844 86.0767L135.588 30.7488C135.344 27.5868 132.004 26.8866 132.004 30.0579V30.0579L132.004 112.827C132.004 119.363 137.303 124.662 143.839 124.662L217.712 124.662V124.662Z" fill="#0A6CA4"/>
</svg>
